#N canvas 0 0 509 738 10;
#X obj 129 499 *~;
#X obj 129 549 dac~;
#X obj 268 88 hsl 128 15 0 400 0 0 empty empty empty -2 -6 0 8 -262144
-1 -1 2300 1;
#X obj 204 293 vline~;
#X obj 204 316 cos~;
#X obj 176 147 f;
#X obj 211 146 mod 8;
#X obj 263 145 + 1;
#X obj 176 102 tgl 15 0 empty empty empty 0 -6 0 8 -262144 -1 -1 0
1;
#X obj 167 189 select 1 3;
#X obj 176 122 metro 100;
#X obj 203 402 *~;
#X obj 204 379 *~;
#X obj 205 357 *~;
#X obj 52 333 noise~;
#X obj 53 361 bp~ 100 2;
#X obj 89 445 vcf~ 200;
#X msg 204 271 0.25 0 0 \, 0.75 \$1 0;
#X obj 204 240 f 100;
#X obj 128 522 clip~ -1 1;
#X obj 53 387 *~ 50;
#X obj 111 419 +~ 50;
#X obj 111 398 *~ 60;
#X obj 155 78 loadbang;
#X connect 0 0 19 0;
#X connect 2 0 10 1;
#X connect 2 0 18 1;
#X connect 3 0 4 0;
#X connect 4 0 13 0;
#X connect 4 0 13 1;
#X connect 5 0 6 0;
#X connect 5 0 9 0;
#X connect 6 0 7 0;
#X connect 7 0 5 1;
#X connect 8 0 10 0;
#X connect 9 0 18 0;
#X connect 9 1 18 0;
#X connect 10 0 5 0;
#X connect 12 0 11 0;
#X connect 12 0 11 1;
#X connect 12 0 0 1;
#X connect 13 0 12 0;
#X connect 13 0 12 1;
#X connect 13 0 22 0;
#X connect 14 0 15 0;
#X connect 15 0 20 0;
#X connect 16 0 0 0;
#X connect 17 0 3 0;
#X connect 18 0 17 0;
#X connect 19 0 1 0;
#X connect 19 0 1 1;
#X connect 20 0 16 0;
#X connect 21 0 16 1;
#X connect 22 0 21 0;
#X connect 23 0 10 0;
